<svg width="24" height="24" viewBox="0 0 24 24" fill="none" xmlns="http://www.w3.org/2000/svg">
<path d="M6.93239 17.1007C6.6049 17.1007 6.35382 17.0134 6.17916 16.8387C6.00449 16.6532 5.91716 16.3912 5.91716 16.0528L5.91716 9.86316C5.91716 9.52475 6.0045 9.26822 6.17916 9.09355C6.35382 8.91889 6.59944 8.83156 6.91601 8.83156C7.23259 8.83156 7.47821 8.91889 7.65287 9.09355C7.82753 9.26822 7.91486 9.52475 7.91486 9.86316L7.91486 11.0585L7.73474 10.5673C7.95307 10.0214 8.29148 9.59025 8.74997 9.27368C9.20846 8.9571 9.75427 8.79881 10.3874 8.79881C11.0315 8.79881 11.5609 8.95164 11.9758 9.2573C12.3906 9.56296 12.6799 10.0324 12.8436 10.6655L12.6144 10.6655C12.8327 10.0869 13.1929 9.63392 13.6951 9.30642C14.1972 8.96802 14.7758 8.79881 15.4308 8.79881C16.0421 8.79881 16.5443 8.91889 16.9373 9.15905C17.3412 9.39921 17.6414 9.76491 17.8379 10.2562C18.0344 10.7365 18.1326 11.3478 18.1326 12.0901L18.1326 16.0528C18.1326 16.3912 18.0398 16.6532 17.8542 16.8387C17.6796 17.0134 17.4285 17.1007 17.101 17.1007C16.7735 17.1007 16.5224 17.0134 16.3478 16.8387C16.1731 16.6532 16.0858 16.3912 16.0858 16.0528L16.0858 12.172C16.0858 11.5607 15.9821 11.1131 15.7747 10.8293C15.5782 10.5454 15.2398 10.4035 14.7594 10.4035C14.2245 10.4035 13.8043 10.5946 13.4986 10.9766C13.1929 11.3478 13.0401 11.8663 13.0401 12.5322L13.0401 16.0528C13.0401 16.3912 12.9528 16.6532 12.7781 16.8387C12.6035 17.0134 12.3524 17.1007 12.0249 17.1007C11.6974 17.1007 11.4409 17.0134 11.2553 16.8387C11.0806 16.6532 10.9933 16.3912 10.9933 16.0528L10.9933 12.172C10.9933 11.5607 10.8896 11.1131 10.6822 10.8293C10.4857 10.5454 10.1527 10.4035 9.68332 10.4035C9.14842 10.4035 8.72813 10.5946 8.42248 10.9766C8.11682 11.3478 7.96399 11.8663 7.96399 12.5322L7.96399 16.0528C7.96399 16.7514 7.62012 17.1007 6.93239 17.1007Z" fill="#F59E0B"/>
</svg>
